<?xml version="1.0" encoding="UTF-8"?>
<!DOCTYPE svg PUBLIC "-//W3C//DTD SVG 1.1//EN" "http://www.w3.org/Graphics/SVG/1.1/DTD/svg11.dtd">
<!-- Creator: CorelDRAW -->
<svg xmlns="http://www.w3.org/2000/svg" xml:space="preserve" width="210mm" height="297mm" style="shape-rendering:geometricPrecision; text-rendering:geometricPrecision; image-rendering:optimizeQuality; fill-rule:evenodd; clip-rule:evenodd"
viewBox="0 0 210 297"
 xmlns:xlink="http://www.w3.org/1999/xlink">
 <defs>
  <style type="text/css">
   <![CDATA[
    .fil1 {fill:#F8C300}
    .fil0 {fill:#F8C300;fill-rule:nonzero}
   ]]>
  </style>
 </defs>
 <g id="Camada_x0020_1">
  <metadata id="CorelCorpID_0Corel-Layer"/>
  <g id="_110627680">
   <path id="_110628664" class="fil0" d="M96.4084 51.9592c8.8439,-1.4758 17.4489,0.773 24.2119,5.6017 3.7266,2.6607 6.8936,6.1051 9.2333,10.141l-3.1101 0.519c-6.8445,-10.8392 -18.6493,-15.0099 -29.5425,-13.3304 -11.0453,1.7028 -21.1539,9.4206 -24.2037,22.2992l-3.1102 0.519c0.9025,-4.577 2.7794,-8.863 5.4402,-12.5896 4.8286,-6.763 12.2373,-11.6841 21.0811,-13.1599zm37.4687 36.8132c-0.7645,5.1373 -2.7506,9.9526 -5.6986,14.0815 -4.8286,6.763 -12.2372,11.684 -21.0811,13.1598 -8.8438,1.4758 -17.4489,-0.7729 -24.2119,-5.6016 -4.1289,-2.9479 -7.571,-6.8574 -9.9621,-11.4681l3.0545 -0.5098c6.5386,11.664 18.6577,16.2633 29.8984,14.6954 11.6776,-1.6288 22.4075,-9.9135 24.9462,-23.8475l3.0546 -0.5097z"/>
   <path id="_110628616" class="fil0" d="M59.4482 80.9147l29.9617 -4.9998c1.0788,-1.6486 2.4856,-3.0809 4.1459,-4.1925 1.6889,-1.1305 3.6381,-1.9285 5.7694,-2.2841 2.1313,-0.3557 4.234,-0.2339 6.1985,0.287 1.9312,0.5122 3.7268,1.4101 5.2825,2.6191l29.8342 -4.9785 -0.2685 1.5299 -29.645 4.9469 -0.3256 0.0544 -0.2572 -0.2094c-1.4563,-1.1857 -3.1579,-2.0615 -4.9936,-2.5484 -1.7663,-0.4683 -3.6605,-0.5772 -5.5842,-0.2562 -1.9237,0.321 -3.6799,1.0391 -5.1984,2.0555 -1.5781,1.0566 -2.9032,2.4375 -3.8956,4.0318l-0.1752 0.2815 -0.3256 0.0544 -29.645 4.9469 -0.8783 -1.3385z"/>
   <path id="_110628568" class="fil0" d="M114.859 89.0229l24.1461 -4.0294 0.2411 1.4448 -24.254 4.0474c-0.9356,1.9026 -2.2739,3.5914 -3.9227,4.9371 -1.923,1.5695 -4.2675,2.6745 -6.8886,3.1119 -2.6211,0.4374 -5.1973,0.1536 -7.5257,-0.7065 -1.9965,-0.7375 -3.8106,-1.9002 -5.3133,-3.3959l-23.93 3.9933 -0.2411 -1.4449 23.8221 -3.9752 0.5764 -0.4846c1.4881,1.7719 3.4203,3.132 5.5934,3.9347 2.0945,0.7737 4.4142,1.0286 6.7771,0.6342 2.3629,-0.3943 4.4742,-1.3886 6.2039,-2.8004 1.7947,-1.4648 3.1807,-3.3787 4.0128,-5.5377l0.7025 0.2712z"/>
   <polygon id="_110628520" class="fil0" points="97.8929,56.2784 100.972,69.763 98.2321,70.2201 97.087,56.4129 "/>
   <path id="_110628472" class="fil0" d="M133.408 79.1305c0.1531,0.3818 0.1956,0.597 0.1923,0.8753l-0.0574 4.7134c0.0214,0.0889 0.1328,0.2 0.2683,0.1773l4.4057 -0.7352c0.1808,-0.0301 0.295,-0.1603 0.3193,-0.294l0.0567 -4.6575c0.0025,-0.2042 0.1219,-0.7426 0.2152,-1.0175l3.055 -8.3061c0.0465,-0.1188 -0.0423,-0.2152 -0.1781,-0.1926l-3.9311 0.656c-0.1356,0.0227 -0.2274,0.1492 -0.2743,0.2867l-1.0854 3.9588c-0.0011,0.0927 -0.0696,0.1598 -0.1146,0.1674 -0.0227,0.0038 -0.0898,-0.0407 -0.1112,-0.1297l-1.0377 -3.6602c-0.0435,-0.1223 -0.1333,-0.163 -0.2463,-0.1441l-4.112 0.6862c-0.113,0.0188 -0.1593,0.1192 -0.1373,0.1711l2.7729 7.4447z"/>
   <path id="_110628424" class="fil0" d="M122.777 86.5342c-0.0013,0.1114 0.0653,0.1928 0.2235,0.1664l4.2024 -0.7013c4.6768,-0.7804 4.737,-3.8645 4.7486,-4.8108 0.0176,-1.4475 -0.9162,-2.5324 -2.3343,-2.7217l0.0004 -0.0371c1.0179,-0.4251 1.5915,-0.9996 1.916,-1.6044l-1.7386 -4.6681c-0.6615,-0.1871 -1.4656,-0.2348 -2.4,-0.0789l-4.2023 0.7013c-0.1582,0.0264 -0.2498,0.1343 -0.2514,0.2642l-0.1643 13.4904z"/>
   <path id="_110628376" class="fil0" d="M112.881 88.1855c-0.0013,0.1115 0.0653,0.1929 0.2235,0.1665l4.2025 -0.7013c4.6768,-0.7804 4.7368,-3.8645 4.7483,-4.8108 0.0177,-1.4475 -0.916,-2.5325 -2.3343,-2.7217l0.0005 -0.0371c2.289,-0.9561 2.3323,-2.667 2.3458,-3.7804 0.0188,-1.5401 -1.6313,-3.0611 -4.5685,-2.571l-4.2021 0.7012c-0.1582,0.0264 -0.2498,0.1344 -0.2514,0.2643l-0.1643 13.4903z"/>
   <path id="_110628328" class="fil0" d="M102.762 85.8926c-0.035,2.8761 2.1623,3.8799 4.6476,3.4652 2.4854,-0.4148 4.7164,-2.1759 4.7512,-5.0337l0.0669 -5.4925c0.035,-2.8764 -2.1397,-3.9023 -4.6475,-3.4838 -2.508,0.4185 -4.7163,2.1759 -4.7513,5.0522l-0.0669 5.4926z"/>
   <path id="_110628280" class="fil0" d="M92.6829 91.482c-0.0018,0.1484 0.1321,0.2557 0.2903,0.2293l3.7278 -0.6221c0.1132,-0.0189 0.2045,-0.1266 0.2056,-0.2195l0.0592 -4.8617c0.0009,-0.0743 0.0472,-0.156 0.16,-0.1748l0.5197 -0.0867c0.0904,-0.0151 0.1348,0.0515 0.1339,0.1257l-0.059 4.8432c-0.0011,0.0928 0.0878,0.1891 0.2008,0.1702l3.841 -0.6409c0.1128,-0.0189 0.1819,-0.1415 0.183,-0.2343l0.165 -13.546c0.0011,-0.0929 -0.0883,-0.1521 -0.2238,-0.1295l-3.8184 0.6372c-0.1129,0.0189 -0.1815,0.1044 -0.1827,0.1973l-0.0589 4.8431c-0.0007,0.0557 -0.0921,0.145 -0.2051,0.1639l-0.4519 0.0754c-0.0902,0.0151 -0.1575,-0.0292 -0.1566,-0.1035l0.0592 -4.8617c0.0011,-0.0928 -0.066,-0.1372 -0.2015,-0.1146l-3.7956 0.6334c-0.1355,0.0226 -0.2269,0.1119 -0.2282,0.2232l-0.1638 13.4534z"/>
   <path id="_110628232" class="fil0" d="M80.9825 79.8233c-0.1355,0.0226 -0.2503,0.1714 -0.2738,0.268l-3.1905 13.8842c-0.0474,0.1931 0.0639,0.3042 0.2672,0.2702l3.7281 -0.6221c0.1128,-0.0188 0.2719,-0.1195 0.2962,-0.2532l0.4623 -2.7992c0.0241,-0.1151 0.1153,-0.2045 0.2056,-0.2195l1.2201 -0.2036c0.1129,-0.0189 0.2027,0.0217 0.2242,0.1106l0.4179 2.7081c0.0212,0.1075 0.156,0.1592 0.2915,0.1365l3.6602 -0.6107c0.2485,-0.0415 0.364,-0.2645 0.3212,-0.461l-2.9338 -12.7512c-0.021,-0.1261 -0.1326,-0.2187 -0.2907,-0.1923l-4.4057 0.7352z"/>
   <path id="_110628184" class="fil0" d="M77.4921 94.2947c0.158,-0.0264 0.2726,-0.1752 0.274,-0.2865l0.1642 -13.4904c0.0014,-0.1113 -0.1107,-0.1667 -0.2688,-0.1404l-3.8635 0.6448c-0.113,0.0188 -0.2044,0.1267 -0.2055,0.2194l-0.1638 13.4535c-0.0018,0.1483 0.1321,0.2556 0.2902,0.2292l3.7732 -0.6296z"/>
   <path id="_110628136" class="fil0" d="M67.09 82.3267c-0.021,-0.126 -0.1333,-0.1629 -0.2688,-0.1403l-4.0444 0.6749c-0.1355,0.0226 -0.1821,0.1416 -0.1605,0.2305l2.8857 12.9815c0.0216,0.089 0.1329,0.2 0.2685,0.1774l4.4058 -0.7352c0.1582,-0.0264 0.2722,-0.1379 0.2964,-0.2716l3.3043 -13.9774c0.0243,-0.1337 -0.0648,-0.23 -0.2003,-0.2074l-3.8863 0.6485c-0.1356,0.0226 -0.2272,0.1492 -0.274,0.2866l-1.0189 5.9107c-0.0011,0.0927 -0.0696,0.1598 -0.1149,0.1674 -0.0224,0.0038 -0.0895,-0.0407 -0.1111,-0.1297l-1.0815 -5.6159z"/>
   <g>
    <g>
     <polygon id="_110628088" class="fil1" points="94.2993,95.356 88.8318,105.536 95.5905,96.1627 "/>
     <path id="_110628040" class="fil1" d="M86.9978 99.3069l0.0002 -0.0002c0.7859,-0.4507 1.7974,-0.1766 2.2482,0.6093l3.2138 5.6035c0.4507,0.7859 0.1766,1.7974 -0.6093,2.2482l-0.0003 0.0001c-0.7859,0.4508 -1.7974,0.1766 -2.2481,-0.6093l-3.2138 -5.6035c-0.4508,-0.7859 -0.1766,-1.7974 0.6093,-2.2481z"/>
     <circle id="_110627992" class="fil1" transform="matrix(1.44484 -0.241105 0.241105 1.44484 89.3146 103.523)" r="1.3891"/>
    </g>
    <g>
     <polygon id="_110627920" class="fil1" points="112.494,92.3197 120.971,100.173 111.535,93.5019 "/>
     <path id="_110627872" class="fil1" d="M120.683 93.6857l-0.0003 0c-0.8896,-0.1712 -1.7573,0.4165 -1.9285,1.3062l-1.2202 6.3434c-0.1711,0.8897 0.4166,1.7574 1.3063,1.9285l0.0003 0.0001c0.8897,0.1711 1.7574,-0.4166 1.9285,-1.3063l1.2202 -6.3434c0.1711,-0.8897 -0.4166,-1.7574 -1.3063,-1.9285z"/>
     <circle id="_110627752" class="fil1" transform="matrix(-1.44484 0.241105 0.241105 1.44484 119.861 98.4256)" r="1.3891"/>
    </g>
   </g>
  </g>
 </g>
</svg>
